<?xml version="1.0" encoding="UTF-8"?>
<!DOCTYPE svg PUBLIC "-//W3C//DTD SVG 1.0//EN" "http://www.w3.org/TR/2001/REC-SVG-20010904/DTD/svg10.dtd">
<!-- Creator: CorelDRAW -->
<svg xmlns="http://www.w3.org/2000/svg" xml:space="preserve" width="553.126mm" height="92.363mm" version="1.0" style="shape-rendering:geometricPrecision; text-rendering:geometricPrecision; image-rendering:optimizeQuality; fill-rule:evenodd; clip-rule:evenodd"
viewBox="0 0 55304.7 9234.99"
 xmlns:xlink="http://www.w3.org/1999/xlink"
 xmlns:xodm="http://www.corel.com/coreldraw/odm/2003">
 <defs>
  <style type="text/css">
   <![CDATA[
    .fil1 {fill:#616E7D;fill-rule:nonzero}
    .fil2 {fill:#7DFFDF;fill-rule:nonzero}
    .fil3 {fill:white;fill-rule:nonzero}
    .fil0 {fill:white;fill-rule:nonzero}
   ]]>
  </style>
 </defs>
 <g id="Camada_x0020_1">
  <metadata id="CorelCorpID_0Corel-Layer"/>
  <g id="_1350340363808">
   <path class="fil0" d="M4355.95 1.95l194.07 0.63 0 -1.95c197.24,0 376.84,81.33 507.44,212.66 129.86,130.55 210.34,309.7 210.34,506.32l-1.95 0 -1.59 618.24 2908.33 7.3 1.6 -615.95 -1.95 0 0 -0.79 1.95 0c0.72,-199.23 81.19,-378.4 210.78,-507.17 130.62,-129.83 309.5,-210.02 505.66,-210.02l0.79 0 0 1.95 194.04 0.74c198.67,0.52 378.18,80.96 507.42,210.79 129.76,130.42 210.18,309.25 210.18,505.91l-1.95 0 -1.61 618.74 761.13 2.17c296.86,0.82 564.82,121.06 758.07,315.01 192.88,193.55 311.89,460.89 311.33,756.37l-2.52 1000.94c12.51,-0.66 25.1,-1 37.76,-1l0 1.95 242.22 0.74 849.26 1.8c198.99,0.76 378.47,81.31 507.52,210.94 129.87,130.43 210.29,309.34 210.29,505.87l-1.95 0 -5.85 2255.76 1.95 0c0,197.44 -81.36,376.91 -212.67,507.29 -130.75,129.86 -310.02,210.28 -506.41,210.28l0 -1.95 -842.14 -2.47 -248.63 -0.28 0 1.95 -1.37 0 0 -1.97 -1.95 0.02c-12.52,-0.08 -24.96,-0.47 -37.31,-1.18l-2.65 1054.04c-0.58,296.96 -120.77,564.78 -314.7,758.03 -193.6,192.92 -461.09,311.83 -756.64,311.33l-7687.9 -18.77 0 1.95 -1.13 0 0 -1.97 -1.95 0.02c-295.53,-1.31 -562.35,-121.63 -754.8,-315.24 -192.64,-193.78 -311.42,-460.94 -310.71,-755.67l-1.95 0 0 -1.13 1.95 0 2.45 -1028.7 -1072.53 -2.71 0 1.95c-197.33,0 -376.83,-81.3 -507.39,-212.59 -129.89,-130.58 -210.28,-309.72 -210.28,-506.28l1.95 0 5.75 -2255.34 -1.95 0 0 -0.79 1.95 0c0.69,-199.02 81.22,-378.19 210.78,-506.87 130.63,-129.74 309.54,-210.01 505.67,-210.01l0.79 0 0 1.95 842.14 2.54 231.88 0.43 2.44 -1028.36c1.32,-295.9 121.77,-563.21 315.67,-756.08 193.87,-192.84 461.27,-311.8 756.59,-311.19l0 -1.95 83.98 0 0 1.95 679.71 1.67 1.52 -618.18c1.44,-198.65 81.88,-377.18 211.15,-505.57 130.74,-129.89 309.56,-210.04 505.94,-210.04l0 1.95z"/>
   <path class="fil0" d="M15146.59 5074.56l835.88 0c67.47,0 126.25,-14.52 176.31,-44.88 50.06,-29.05 88.16,-71.28 113.19,-126.72 26.12,-55.45 38.08,-122.77 38.08,-199.33l0 -627.04c0,-84.48 -11.97,-158.41 -38.08,-220.45 -25.04,-62.04 -63.13,-108.24 -113.19,-141.25 -50.06,-31.68 -108.84,-47.51 -176.31,-47.51l-835.88 0 0 -921.41 787.99 0c250.33,0 464.74,50.16 642.15,149.16 177.4,99.01 313.45,245.54 405.96,436.95 93.61,192.73 140.41,422.42 140.41,690.39l0 657.4c0,275.9 -46.8,512.19 -140.41,710.2 -92.52,196.69 -228.56,347.18 -408.14,450.15 -178.49,102.97 -391.82,154.45 -639.97,154.45l-787.99 0 0 -920.09zm-353.73 -2328.6l774.93 0 0 5627.45 -774.93 0 0 -5627.45zm998.05 3074.43l723.78 -176.88 739.01 2729.9 -847.85 0 -614.94 -2553.02zm3010.48 2611.1c-249.24,0 -462.56,-52.8 -639.97,-157.09 -177.41,-104.29 -312.38,-254.77 -405.97,-451.47 -93.6,-198.01 -140.4,-435.62 -140.4,-714.16l0 -3094.24c0,-278.53 46.8,-516.15 140.4,-715.48 93.6,-198.01 228.56,-348.49 405.97,-452.78 177.4,-102.97 390.72,-154.45 639.97,-154.45 248.15,0 461.47,51.48 638.88,154.45 177.4,104.29 313.45,254.76 407.05,452.78 92.52,199.33 139.32,436.95 139.32,715.48l0 3094.24c0,278.54 -46.8,516.15 -139.32,714.16 -93.61,196.69 -229.65,347.18 -407.05,451.47 -177.4,104.29 -390.72,157.09 -638.88,157.09zm0 -959.69c80.54,0 150.19,-18.48 207.88,-58.08 58.77,-38.27 103.4,-93.72 132.78,-166.33 29.38,-71.28 44.62,-159.73 44.62,-262.69l0 -2853.98c0,-100.33 -15.25,-186.13 -44.62,-258.74 -29.39,-72.6 -74.01,-128.04 -132.78,-166.33 -57.69,-38.27 -127.34,-58.08 -207.88,-58.08 -81.63,0 -150.21,19.81 -207.88,58.08 -57.69,38.28 -101.23,93.73 -130.61,166.33 -29.39,72.61 -44.62,158.42 -44.62,258.74l0 2853.98c0,102.97 15.24,191.41 44.62,262.69 29.39,72.61 72.92,128.05 130.61,166.33 57.67,39.6 126.25,58.08 207.88,58.08zm2143.03 0l694.39 0c97.96,0 174.14,-31.68 228.56,-93.72 54.41,-63.37 81.63,-151.81 81.63,-265.34l0 -753.75c0,-93.73 -13.06,-172.94 -37,-238.94 -25.03,-64.68 -60.95,-114.84 -109.92,-150.49 -48.98,-34.32 -107.75,-51.48 -175.24,-51.48l-682.41 0 0 -889.72 662.83 0c93.6,0 166.53,-36.96 218.76,-108.24 52.24,-72.61 78.37,-175.58 78.37,-310.22l0 -603.27c0,-113.52 -26.13,-200.65 -78.37,-264.01 -52.23,-63.36 -124.07,-95.05 -215.5,-95.05l-666.09 0 0 -897.64 745.54 0c208.97,0 387.46,44.88 535.48,135.96 149.11,89.77 262.3,221.78 340.67,396.02 77.26,174.25 115.35,384.14 115.35,628.35l0 603.27c0,170.29 -26.12,320.77 -79.45,450.15 -53.33,130.68 -129.52,237.61 -230.74,322.09 -101.22,83.17 -223.11,139.93 -365.7,167.65 155.65,26.41 288.43,81.85 397.26,166.33 109.92,85.81 193.73,196.69 252.5,333.98 57.68,138.61 87.08,299.66 87.08,481.82l0 765.64c0,248.17 -38.09,459.38 -114.28,634.96 -77.28,175.57 -189.37,308.9 -336.31,399.97 -148.02,91.09 -325.43,137.29 -531.12,137.29l-816.29 0 0 -901.61zm-452.77 -4721.88l793.43 0 0 5623.49 -793.43 0 0 -5623.49zm3830.03 5681.57c-249.24,0 -462.56,-52.8 -639.97,-157.09 -177.41,-104.29 -312.38,-254.77 -405.97,-451.47 -93.61,-198.01 -140.4,-435.62 -140.4,-714.16l0 -3094.24c0,-278.53 46.79,-516.15 140.4,-715.48 93.6,-198.01 228.56,-348.49 405.97,-452.78 177.4,-102.97 390.72,-154.45 639.97,-154.45 248.14,0 461.47,51.48 638.88,154.45 177.4,104.29 313.45,254.76 407.05,452.78 92.52,199.33 139.32,436.95 139.32,715.48l0 3094.24c0,278.54 -46.8,516.15 -139.32,714.16 -93.61,196.69 -229.65,347.18 -407.05,451.47 -177.4,104.29 -390.73,157.09 -638.88,157.09zm0 -959.69c80.54,0 150.19,-18.48 207.88,-58.08 58.77,-38.27 103.4,-93.72 132.78,-166.33 29.38,-71.28 44.62,-159.73 44.62,-262.69l0 -2853.98c0,-100.33 -15.25,-186.13 -44.62,-258.74 -29.39,-72.6 -74.01,-128.04 -132.78,-166.33 -57.69,-38.27 -127.34,-58.08 -207.88,-58.08 -81.64,0 -150.21,19.81 -207.89,58.08 -57.68,38.28 -101.23,93.73 -130.6,166.33 -29.39,72.61 -44.62,158.42 -44.62,258.74l0 2853.98c0,102.97 15.24,191.41 44.62,262.69 29.38,72.61 72.92,128.05 130.6,166.33 57.68,39.6 126.25,58.08 207.89,58.08zm1001.31 -5634.05l-478.89 537.26 -528.94 -568.95 -526.79 568.95 -481.06 -537.26 1007.85 -1025.69 1007.84 1025.69zm2591.44 5615.57l593.17 0c106.66,0 188.29,-39.6 245.98,-118.8 56.59,-77.89 85.99,-188.77 85.99,-330.02l0 -2885.67c0,-141.24 -29.4,-252.13 -85.99,-330.01 -57.68,-79.21 -139.31,-117.48 -245.98,-118.8l-593.17 0 0 -920.09 672.62 0c220.94,0 410.32,50.16 568.13,149.17 156.73,99 277.54,244.21 360.26,432.98 82.72,190.09 124.07,415.82 124.07,678.51l0 3102.16c0,262.7 -41.35,489.75 -124.07,678.52 -82.72,190.08 -203.53,333.97 -362.44,432.98 -157.81,99.01 -348.28,149.17 -569.22,149.17l-669.35 0 0 -920.09zm-525.69 -4703.4l790.16 0 0 5623.49 -790.16 0 0 -5623.49zm3510.04 0l555.07 0 1106.88 5623.49 -784.73 0 -599.69 -3685.64 -599.69 3685.64 -783.65 0 1105.81 -5623.49zm-353.73 3851.96l1262.52 0 0 897.64 -1262.52 0 0 -897.64zm3673.3 -3851.96l790.16 0 0 5623.49 -790.16 0 0 -5623.49zm325.42 4703.4l1670.67 0 0 920.09 -1670.67 0 0 -920.09zm3137.81 978.17c-249.23,0 -462.56,-52.8 -639.97,-157.09 -177.41,-104.29 -312.37,-254.77 -405.97,-451.47 -93.6,-198.01 -140.39,-435.62 -140.39,-714.16l0 -3094.24c0,-278.53 46.79,-516.15 140.39,-715.48 93.61,-198.01 228.56,-348.49 405.97,-452.78 177.4,-102.97 390.73,-154.45 639.97,-154.45 248.15,0 461.47,51.48 638.88,154.45 177.41,104.29 313.46,254.76 407.05,452.78 92.53,199.33 139.32,436.95 139.32,715.48l0 3094.24c0,278.54 -46.79,516.15 -139.32,714.16 -93.6,196.69 -229.64,347.18 -407.05,451.47 -177.4,104.29 -390.72,157.09 -638.88,157.09zm0 -959.69c80.55,0 150.2,-18.48 207.88,-58.08 58.77,-38.27 103.4,-93.72 132.79,-166.33 29.38,-71.28 44.62,-159.73 44.62,-262.69l0 -2853.98c0,-100.33 -15.25,-186.13 -44.62,-258.74 -29.4,-72.6 -74.02,-128.04 -132.79,-166.33 -57.68,-38.27 -127.33,-58.08 -207.88,-58.08 -81.63,0 -150.2,19.81 -207.88,58.08 -57.69,38.28 -101.23,93.73 -130.6,166.33 -29.4,72.61 -44.62,158.42 -44.62,258.74l0 2853.98c0,102.97 15.23,191.41 44.62,262.69 29.38,72.61 72.91,128.05 130.6,166.33 57.68,39.6 126.25,58.08 207.88,58.08zm2199.62 -4249.3l790.18 0 0 5150.91 -790.18 0 0 -5150.91zm-765.13 -472.58l2321.53 0 0 920.09 -2321.53 0 0 -920.09zm3756.02 5681.57c-249.23,0 -462.56,-52.8 -639.97,-157.09 -177.41,-104.29 -312.37,-254.77 -405.97,-451.47 -93.6,-198.01 -140.4,-435.62 -140.4,-714.16l0 -3094.24c0,-278.53 46.8,-516.15 140.4,-715.48 93.61,-198.01 228.56,-348.49 405.97,-452.78 177.4,-102.97 390.73,-154.45 639.97,-154.45 248.15,0 461.47,51.48 638.88,154.45 177.41,104.29 313.46,254.76 407.05,452.78 92.53,199.33 139.32,436.95 139.32,715.48l0 3094.24c0,278.54 -46.79,516.15 -139.32,714.16 -93.6,196.69 -229.64,347.18 -407.05,451.47 -177.4,104.29 -390.72,157.09 -638.88,157.09zm0 -959.69c80.55,0 150.2,-18.48 207.88,-58.08 58.77,-38.27 103.4,-93.72 132.79,-166.33 29.38,-71.28 44.61,-159.73 44.61,-262.69l0 -2853.98c0,-100.33 -15.24,-186.13 -44.61,-258.74 -29.4,-72.6 -74.02,-128.04 -132.79,-166.33 -57.68,-38.27 -127.33,-58.08 -207.88,-58.08 -81.63,0 -150.2,19.81 -207.88,58.08 -57.69,38.28 -101.23,93.73 -130.6,166.33 -29.4,72.61 -44.62,158.42 -44.62,258.74l0 2853.98c0,102.97 15.23,191.41 44.62,262.69 29.38,72.61 72.91,128.05 130.6,166.33 57.68,39.6 126.25,58.08 207.88,58.08zm1690.27 -4721.88l790.16 0 0 5623.49 -790.16 0 0 -5623.49zm353.72 2421.01l1549.86 0 0 920.09 -1549.86 0 0 -920.09zm0 -2421.01l1708.76 0 0 920.09 -1708.76 0 0 -920.09zm2617.57 0l555.07 0 1106.88 5623.49 -784.73 0 -599.69 -3685.64 -599.69 3685.64 -783.65 0 1105.81 -5623.49zm-353.73 3851.96l1262.52 0 0 897.64 -1262.52 0 0 -897.64zm198.08 -4787.9l803.23 -1008.53 580.11 675.87 -879.4 921.41 -503.93 -588.76zm3146.52 6617.51c-234.01,0 -433.18,-56.76 -599.7,-167.65 -165.44,-112.2 -292.77,-275.89 -380.94,-489.75 -88.16,-213.85 -131.69,-472.58 -131.69,-773.56l0 -2877.75c0,-300.97 43.53,-559.71 131.69,-773.56 88.17,-213.85 215.5,-376.22 380.94,-488.42 166.53,-112.2 365.7,-168.97 599.7,-168.97 234,0 434.26,56.76 600.78,168.97 167.62,112.2 293.87,275.89 382.03,491.06 87.07,215.18 130.6,473.91 130.6,774.88l0 452.79 -801.05 0 0 -452.79c0,-95.04 -10.89,-178.2 -34.84,-246.84 -22.85,-69.97 -58.77,-124.09 -106.65,-161.05 -47.89,-36.96 -104.5,-55.45 -170.88,-55.45 -63.13,0 -118.63,17.17 -165.44,54.12 -46.8,35.64 -82.72,88.45 -106.65,158.42 -25.04,69.96 -37.01,151.81 -37.01,246.84l0 2877.75c0,95.05 11.98,176.89 37.01,245.54 23.94,68.64 59.85,120.12 106.65,157.09 46.8,35.64 102.31,54.12 165.44,54.12 68.57,0 125.16,-18.48 171.97,-54.12 46.79,-36.96 82.72,-88.45 105.56,-157.09 23.95,-68.64 34.84,-151.81 34.84,-249.49l0 -452.79 801.05 0 0 452.79c0,302.3 -43.53,559.71 -130.6,774.88 -88.16,216.5 -214.41,380.19 -382.03,492.39 -166.53,110.88 -366.79,167.65 -600.78,167.65zm2280.17 -58.08l-791.26 0 0 -5623.49 791.26 0 0 5623.49zm503.92 -5623.49l790.17 0 0 5623.49 -790.17 0 0 -5623.49zm325.42 4703.4l1670.67 0 0 920.09 -1670.67 0 0 -920.09z"/>
   <g>
    <path class="fil1" d="M10886.94 6480.07l0 211.53 -8301.47 0 0 -211.53 8301.47 0zm-1419.27 -2583.55c409.65,0 741.6,331.49 741.6,741.15 0,409.44 -331.95,741.18 -741.6,741.18 -408.92,0 -740.87,-331.74 -740.87,-741.18 0,-409.66 331.95,-741.15 740.87,-741.15zm-5547.83 0c408.91,0 740.86,331.49 740.86,741.15 0,409.44 -331.95,741.18 -740.86,741.18 -409.62,0 -740.87,-331.74 -740.87,-741.18 0,-409.66 331.25,-741.15 740.87,-741.15zm630.18 -3395.96l-194.07 -0.63c-120.59,0 -218.23,97.04 -219.11,217.63l-2.76 1115.43 -1176.45 -2.89 -83.98 0c-316.29,-0.67 -572.87,255.09 -574.28,571.24l-13.65 5742.83c-1.38,316.15 254.35,573.29 570.61,574.06l7687.9 18.77c316.26,0.53 572.73,-254.67 573.36,-571.38l14.46 -5742.72c0.6,-316.16 -255.12,-572.52 -571.42,-573.4l-240.03 -0.64 -1020.37 -2.99 2.9 -1115.26c0,-120.73 -97.71,-218.41 -217.67,-218.72l-194.04 -0.74c-120.84,-0.43 -219.25,97.25 -219.25,218.05l-2.9 1115.18 -3904.25 -9.8 2.86 -1114.97c0,-120.81 -97.78,-219.05 -217.85,-219.05z"/>
    <path class="fil1" d="M505.68 4140.5l-5.75 2255.34c0,120.8 97.61,218.94 217.74,218.94l849.41 2.22 0 -2691.7 -842.14 -2.54c-120.84,-0.43 -219.26,97.32 -219.26,217.74z"/>
    <path class="fil2" d="M1567.08 3925.3l0 2691.7 242.29 0.53c120.6,0 218.24,-97.25 218.24,-217.64l5.89 -2255.76c0.67,-120.42 -97.04,-218.37 -217.85,-218.37l-248.56 -0.46z"/>
    <path class="fil1" d="M11907.49 3923.5l0 2691.56 842.14 2.47c120.8,0 219.15,-97.57 219.15,-217.64l5.85 -2255.76c0,-120.42 -97.7,-218.37 -217.88,-218.83l-849.26 -1.8z"/>
    <path class="fil2" d="M11446.75 4140.5l-5.75 2255.76c-0.74,120.21 97.04,218.52 217.85,218.52l248.63 0.28 0 -2691.56 -242.22 -0.74c-120.7,0 -218.52,96.93 -218.52,217.74z"/>
    <path class="fil3" d="M3178.97 4637.67c0,409.44 331.25,741.18 740.87,741.18 408.91,0 740.86,-331.74 740.86,-741.18 0,-409.66 -331.95,-741.15 -740.86,-741.15 -409.62,0 -740.87,331.49 -740.87,741.15z"/>
    <path class="fil3" d="M8726.8 4637.67c0,409.44 331.95,741.18 740.87,741.18 409.65,0 741.6,-331.74 741.6,-741.18 0,-409.66 -331.95,-741.15 -741.6,-741.15 -408.92,0 -740.87,331.49 -740.87,741.15z"/>
    <polygon class="fil3" points="2585.47,6691.6 10886.94,6691.6 10886.94,6480.06 2585.47,6480.06 "/>
   </g>
  </g>
 </g>
</svg>
